<?xml version="1.0" standalone="no"?>
<!DOCTYPE svg PUBLIC "-//W3C//DTD SVG 20010904//EN"
 "http://www.w3.org/TR/2001/REC-SVG-20010904/DTD/svg10.dtd">
<svg version="1.0" xmlns="http://www.w3.org/2000/svg"
 width="700.000000pt" height="700.000000pt" viewBox="0 0 700.000000 700.000000"
 preserveAspectRatio="xMidYMid meet">
<metadata>
Created by potrace 1.14, written by Peter Selinger 2001-2017
</metadata>
<g transform="translate(0.000000,700.000000) scale(0.100000,-0.100000)"
fill="#000000" stroke="none">
<path d="M1315 6993 c-16 -2 -74 -13 -129 -24 -290 -60 -559 -209 -767 -425
-201 -210 -326 -445 -391 -735 l-23 -104 0 -2205 c0 -2467 -6 -2247 71 -2480
77 -230 183 -399 364 -580 214 -214 422 -331 730 -408 l105 -27 2170 -3 c1520
-2 2195 0 2253 8 582 76 1077 509 1246 1091 59 207 57 89 53 2459 -2 2047 -4
2169 -21 2240 -78 324 -197 542 -415 761 -183 183 -348 285 -583 364 -230 76
2 69 -2443 71 -1204 1 -2203 -1 -2220 -3z m2803 -1088 c77 -33 123 -104 123
-189 0 -61 -10 -91 -46 -135 -114 -135 -346 -67 -363 107 -15 162 138 278 286
217z m-2181 -1227 c24 -23 48 -88 58 -158 l7 -45 66 -1 c113 -1 172 -33 172
-92 0 -53 -93 -112 -176 -112 -30 0 -32 -2 -38 -47 -12 -89 -39 -156 -82 -200
-37 -40 -45 -43 -92 -43 -87 0 -133 60 -150 195 l-7 60 -90 3 c-76 2 -93 6
-113 25 -51 48 -66 112 -37 167 26 50 50 60 151 60 l92 0 7 37 c9 50 41 116
69 142 47 45 121 49 163 9z m2303 -458 c46 -6 88 -14 93 -19 12 -12 20 -105
13 -145 -8 -44 -56 -100 -107 -127 -36 -18 -46 -18 -136 -7 -151 18 -557 15
-675 -5 -217 -38 -345 -100 -416 -204 -22 -32 -108 -143 -192 -248 -84 -104
-156 -201 -161 -214 -12 -29 -5 -53 22 -77 20 -18 56 -20 654 -29 589 -9 634
-11 653 -28 40 -37 34 -112 -20 -241 -16 -39 -113 -323 -214 -631 -102 -308
-206 -622 -231 -699 -25 -76 -54 -147 -64 -157 -18 -18 -43 -19 -498 -19 -271
0 -490 4 -504 9 -24 10 -25 10 -30 193 -4 142 -10 200 -26 260 -60 218 -168
364 -368 495 -243 160 -551 174 -840 38 -165 -77 -296 -269 -354 -518 -39
-167 -39 -169 -89 -196 -59 -33 -127 -32 -175 0 l-35 24 0 180 c0 274 32 508
95 702 88 268 229 436 414 493 143 45 762 95 971 79 52 -4 98 -5 102 -3 3 2
30 44 59 92 265 443 565 768 823 892 120 58 277 94 536 124 67 8 615 -3 700
-14z m1307 -1 c61 -21 133 -151 133 -239 0 -68 -25 -124 -81 -184 l-42 -46
-176 0 c-205 0 -245 -11 -274 -73 -21 -43 -21 -79 -2 -145 24 -79 53 -95 191
-101 140 -7 159 -18 192 -112 18 -53 22 -80 19 -154 -4 -106 -25 -158 -76
-192 -32 -22 -43 -23 -221 -23 l-186 0 -31 -32 c-38 -40 -73 -112 -73 -153 0
-40 31 -104 66 -137 l29 -27 279 -8 278 -8 39 -45 c107 -124 112 -233 14 -338
-48 -52 -55 -56 -111 -63 -32 -4 -140 -8 -240 -8 -99 -1 -277 -4 -394 -8
l-213 -6 -20 -46 c-12 -26 -22 -77 -25 -118 -4 -60 -1 -79 18 -117 l22 -46
304 0 304 0 19 -39 c30 -57 43 -159 32 -233 -15 -89 -38 -152 -67 -179 l-26
-24 -534 -3 c-356 -2 -548 1 -575 8 -55 15 -106 63 -120 112 -14 53 -5 98 43
226 69 181 223 639 533 1577 163 495 304 914 314 930 34 61 57 65 357 65 164
0 283 -4 301 -11z m803 -832 c61 -40 75 -77 78 -207 4 -140 -9 -173 -78 -208
-44 -22 -51 -23 -321 -20 l-276 3 -35 27 c-55 42 -71 95 -66 222 4 116 14 140
78 184 32 21 39 22 310 22 271 0 278 -1 310 -23z m-4586 -1133 c143 -35 296
-153 369 -285 67 -120 91 -267 66 -405 -16 -94 -87 -229 -156 -300 -142 -145
-351 -212 -545 -175 -221 43 -416 230 -469 451 -19 78 -16 222 5 295 56 189
200 342 381 406 112 39 224 44 349 13z m4038 -424 c107 -40 182 -151 182 -270
0 -262 -323 -384 -499 -188 -56 62 -79 130 -73 212 9 107 63 187 160 235 75
38 150 41 230 11z"/>
</g>
</svg>
